<?xml version="1.0" encoding="UTF-8"?>
<svg xmlns="http://www.w3.org/2000/svg" xmlns:xlink="http://www.w3.org/1999/xlink" width="300px" height="58px" viewBox="0 0 78 15" version="1.1">
<defs>
<linearGradient id="linear0" gradientUnits="userSpaceOnUse" x1="77.902" y1="30.726" x2="77.506" y2="-5.109" gradientTransform="matrix(0.5,0,0,-0.5,0.1,16)">
<stop offset="0" style="stop-color:rgb(0%,25.490196%,58.823529%);stop-opacity:1;"/>
<stop offset="0.021" style="stop-color:rgb(0%,29.019608%,63.921569%);stop-opacity:1;"/>
<stop offset="0.077" style="stop-color:rgb(0%,37.254902%,75.686275%);stop-opacity:1;"/>
<stop offset="0.126" style="stop-color:rgb(0%,41.960784%,82.745098%);stop-opacity:1;"/>
<stop offset="0.16" style="stop-color:rgb(0%,43.921569%,85.490196%);stop-opacity:1;"/>
<stop offset="0.536" style="stop-color:rgb(0%,40.392157%,84.313725%);stop-opacity:1;"/>
<stop offset="0.576" style="stop-color:rgb(0%,38.039216%,79.215686%);stop-opacity:1;"/>
<stop offset="0.649" style="stop-color:rgb(0%,31.372549%,65.490196%);stop-opacity:1;"/>
<stop offset="0.747" style="stop-color:rgb(0%,21.176471%,43.921569%);stop-opacity:1;"/>
<stop offset="0.78" style="stop-color:rgb(0%,17.254902%,36.078431%);stop-opacity:1;"/>
<stop offset="0.93" style="stop-color:rgb(0%,0%,0%);stop-opacity:1;"/>
</linearGradient>
<linearGradient id="linear1" gradientUnits="userSpaceOnUse" x1="81.071" y1="32.721" x2="82.155" y2="17.819" gradientTransform="matrix(0.5,0,0,-0.5,0.1,16)">
<stop offset="0" style="stop-color:rgb(40%,40%,40%);stop-opacity:1;"/>
<stop offset="1" style="stop-color:rgb(0%,0%,0%);stop-opacity:1;"/>
</linearGradient>
<radialGradient id="radial0" gradientUnits="userSpaceOnUse" cx="70.279" cy="11.628" fx="70.279" fy="11.628" r="12.571" gradientTransform="matrix(0.5,0,0,-0.5,0.1,16)">
<stop offset="0.045" style="stop-color:rgb(100%,100%,100%);stop-opacity:1;"/>
<stop offset="0.239" style="stop-color:rgb(97.647059%,97.647059%,97.647059%);stop-opacity:1;"/>
<stop offset="0.51" style="stop-color:rgb(90.196078%,90.196078%,90.196078%);stop-opacity:1;"/>
<stop offset="0.826" style="stop-color:rgb(78.823529%,78.823529%,78.823529%);stop-opacity:1;"/>
<stop offset="1" style="stop-color:rgb(70.980392%,70.980392%,70.980392%);stop-opacity:1;"/>
</radialGradient>
<radialGradient id="radial1" gradientUnits="userSpaceOnUse" cx="81.546" cy="17.008" fx="81.546" fy="17.008" r="6.899" gradientTransform="matrix(0.5,0,0,-0.5,0.1,16)">
<stop offset="0" style="stop-color:rgb(100%,83.921569%,24.705882%);stop-opacity:1;"/>
<stop offset="0.6" style="stop-color:rgb(100%,58.823529%,20%);stop-opacity:1;"/>
<stop offset="1" style="stop-color:rgb(80.392157%,33.333333%,1.960784%);stop-opacity:1;"/>
</radialGradient>
<radialGradient id="radial2" gradientUnits="userSpaceOnUse" cx="81.546" cy="17.008" fx="81.546" fy="17.008" r="6.899" gradientTransform="matrix(0.5,0,0,-0.5,0.1,16)">
<stop offset="0" style="stop-color:rgb(100%,0%,0%);stop-opacity:1;"/>
<stop offset="0.148" style="stop-color:rgb(98.431373%,1.176471%,3.529412%);stop-opacity:1;"/>
<stop offset="0.388" style="stop-color:rgb(94.509804%,4.313725%,12.941176%);stop-opacity:1;"/>
<stop offset="0.6" style="stop-color:rgb(90.196078%,7.45098%,23.529412%);stop-opacity:1;"/>
<stop offset="1" style="stop-color:rgb(55.686275%,0%,2.352941%);stop-opacity:1;"/>
</radialGradient>
<radialGradient id="radial3" gradientUnits="userSpaceOnUse" cx="81.55" cy="17.008" fx="81.55" fy="17.008" r="6.896" gradientTransform="matrix(0.5,0,0,-0.5,0.1,16)">
<stop offset="0" style="stop-color:rgb(1.176471%,38.431373%,85.882353%);stop-opacity:1;"/>
<stop offset="0.55" style="stop-color:rgb(0%,36.862745%,100%);stop-opacity:1;"/>
<stop offset="0.621" style="stop-color:rgb(0%,34.509804%,96.470588%);stop-opacity:1;"/>
<stop offset="0.737" style="stop-color:rgb(0%,28.627451%,87.058824%);stop-opacity:1;"/>
<stop offset="0.881" style="stop-color:rgb(0%,18.823529%,71.372549%);stop-opacity:1;"/>
<stop offset="1" style="stop-color:rgb(0%,9.803922%,56.862745%);stop-opacity:1;"/>
</radialGradient>
<radialGradient id="radial4" gradientUnits="userSpaceOnUse" cx="81.546" cy="17.008" fx="81.546" fy="17.008" r="6.899" gradientTransform="matrix(0.5,0,0,-0.5,0.1,16)">
<stop offset="0" style="stop-color:rgb(74.901961%,41.960784%,83.137255%);stop-opacity:1;"/>
<stop offset="0.173" style="stop-color:rgb(74.509804%,41.176471%,86.666667%);stop-opacity:1;"/>
<stop offset="0.454" style="stop-color:rgb(72.941176%,38.431373%,96.078431%);stop-opacity:1;"/>
<stop offset="0.55" style="stop-color:rgb(72.54902%,37.254902%,100%);stop-opacity:1;"/>
<stop offset="0.609" style="stop-color:rgb(69.411765%,34.901961%,96.470588%);stop-opacity:1;"/>
<stop offset="0.705" style="stop-color:rgb(60.784314%,29.019608%,87.058824%);stop-opacity:1;"/>
<stop offset="0.826" style="stop-color:rgb(46.666667%,19.215686%,71.372549%);stop-opacity:1;"/>
<stop offset="0.966" style="stop-color:rgb(27.058824%,5.882353%,49.803922%);stop-opacity:1;"/>
<stop offset="1" style="stop-color:rgb(21.960784%,2.352941%,44.313725%);stop-opacity:1;"/>
</radialGradient>
</defs>
<g id="surface1">
<path style=" stroke:none;fill-rule:nonzero;fill:rgb(100%,100%,100%);fill-opacity:1;" d="M 77.851562 12.5 L 0.101562 12.5 L 0.101562 2.449219 L 77.898438 2.449219 L 77.898438 12.5 Z M 77.851562 12.5 "/>
<path style=" stroke:none;fill-rule:nonzero;fill:rgb(96.078431%,96.078431%,96.078431%);fill-opacity:1;" d="M 77.25 11.851562 L 0.75 11.851562 L 0.75 3.050781 L 77.25 3.050781 Z M 77.25 11.851562 "/>
<path style=" stroke:none;fill-rule:nonzero;fill:rgb(90.196078%,90.196078%,90.196078%);fill-opacity:1;" d="M 77.25 11.851562 L 0.75 11.851562 L 0.75 7.5 L 77.25 7.5 Z M 77.25 11.851562 "/>
<path style=" stroke:none;fill-rule:nonzero;fill:url(#linear0);" d="M 29.050781 0 L 48.898438 0 L 48.898438 15 L 29.050781 15 Z M 29.050781 0 "/>
<path style=" stroke:none;fill-rule:nonzero;fill:rgb(40%,40%,40%);fill-opacity:1;" d="M 30.199219 5.300781 L 30.898438 4.5 L 30.601562 3.199219 L 30.199219 2.898438 Z M 30.199219 5.300781 "/>
<path style=" stroke:none;fill-rule:nonzero;fill:rgb(0%,0%,0%);fill-opacity:1;" d="M 30.199219 2.898438 L 30.648438 3.199219 L 32.300781 2.949219 L 32.449219 1.550781 L 32.25 1.25 C 31.75 2.300781 30.949219 2.648438 30.199219 2.898438 Z M 30.199219 2.898438 "/>
<path style=" stroke:none;fill-rule:evenodd;fill:rgb(34.901961%,34.901961%,34.901961%);fill-opacity:1;" d="M 32.5 1.550781 L 35.050781 1.648438 L 35.398438 1.25 L 32.25 1.25 Z M 32.5 1.550781 "/>
<path style=" stroke:none;fill-rule:nonzero;fill:rgb(0%,0%,0%);fill-opacity:1;" d="M 35.050781 1.648438 L 35.25 4.351562 L 35.5 3.601562 L 35.5 3.648438 L 35.5 1.300781 "/>
<path style=" stroke:none;fill-rule:nonzero;fill:url(#linear1);" d="M 40.898438 14.25 C 44.75 14.25 47.601562 11.101562 47.601562 7.5 C 47.601562 3.800781 44.550781 0.75 40.851562 0.75 C 38.449219 0.75 36.398438 2.050781 35.449219 3.550781 L 35.199219 4.398438 L 34.949219 9.601562 L 35.449219 11.351562 L 35.449219 11.300781 C 36.601562 13.148438 38.75 14.25 40.898438 14.25 Z M 40.898438 14.25 "/>
<path style=" stroke:none;fill-rule:nonzero;fill:rgb(25.098039%,25.098039%,25.098039%);fill-opacity:1;" d="M 35.398438 11.398438 L 35.148438 10.550781 L 34.851562 13.199219 L 35.101562 13.550781 L 35.398438 13.851562 Z M 35.398438 11.398438 "/>
<path style=" stroke:none;fill-rule:nonzero;fill:rgb(10.196078%,10.196078%,10.196078%);fill-opacity:1;" d="M 35.398438 13.800781 L 35.199219 13.550781 L 31.800781 13.550781 L 31.550781 13.75 L 31.550781 13.800781 Z M 35.398438 13.800781 "/>
<path style=" stroke:none;fill-rule:nonzero;fill:rgb(30.196078%,30.196078%,30.196078%);fill-opacity:1;" d="M 31.550781 13.800781 L 31.851562 13.550781 L 31.949219 5.148438 L 31.949219 4.898438 L 31.550781 5.300781 Z M 31.550781 13.800781 "/>
<path style=" stroke:none;fill-rule:nonzero;fill:rgb(0%,0%,0%);fill-opacity:1;" d="M 31.949219 4.898438 L 32.050781 4.699219 L 30.898438 4.5 L 30.199219 5.300781 L 31.550781 5.300781 Z M 31.949219 4.898438 "/>
<path style=" stroke:none;fill-rule:nonzero;fill:rgb(100%,100%,100%);fill-opacity:1;" d="M 40.851562 14 C 38.398438 14 36.300781 12.699219 35.199219 10.699219 L 35.199219 13.550781 L 31.75 13.550781 L 31.75 5.050781 L 30.351562 5.050781 L 30.351562 3 C 30.898438 2.851562 31.351562 2.648438 31.800781 2.199219 C 32.050781 1.949219 32.199219 1.699219 32.398438 1.398438 L 35.25 1.398438 L 35.25 4.25 C 36.351562 2.25 38.449219 1 40.898438 1 C 44.5 1 47.398438 3.898438 47.398438 7.5 C 47.351562 11.101562 44.449219 14 40.851562 14 Z M 40.851562 14 "/>
<path style=" stroke:none;fill-rule:nonzero;fill:url(#radial0);" d="M 35.351562 10.699219 L 35.351562 10.949219 C 36.5 12.800781 38.5 14 40.851562 14 L 40.949219 14 C 38.550781 14 36.5 12.699219 35.351562 10.699219 Z M 35.351562 10.699219 "/>
<path style=" stroke:none;fill-rule:nonzero;fill:rgb(100%,100%,100%);fill-opacity:1;" d="M 30.550781 5.050781 L 30.550781 3 C 31.101562 2.851562 31.550781 2.648438 31.949219 2.199219 C 32.199219 1.949219 32.351562 1.699219 32.550781 1.398438 L 32.398438 1.398438 C 32.199219 1.699219 32.050781 2 31.800781 2.25 C 31.398438 2.699219 30.898438 2.898438 30.398438 3.050781 L 30.398438 5.101562 L 31.800781 5.101562 L 31.800781 13.601562 L 31.949219 13.601562 L 31.949219 5.101562 Z M 37.648438 7.75 C 37.648438 8.199219 37.800781 8.601562 37.949219 9 L 44.25 9 C 44.398438 8.601562 44.550781 8.199219 44.550781 7.75 Z M 44.199219 6.101562 L 37.949219 6.101562 C 37.800781 6.5 37.648438 6.898438 37.648438 7.300781 L 44.550781 7.300781 C 44.5 6.898438 44.398438 6.449219 44.199219 6.101562 Z M 44.199219 6.101562 "/>
<path style=" stroke:none;fill-rule:evenodd;fill:rgb(100%,100%,100%);fill-opacity:1;" d="M 41.101562 4.101562 C 39.898438 4.101562 38.800781 4.75 38.199219 5.699219 L 44 5.699219 C 43.398438 4.699219 42.300781 4.101562 41.101562 4.101562 Z M 41.101562 4.101562 "/>
<path style=" stroke:none;fill-rule:nonzero;fill:url(#radial1);" d="M 37.449219 7.699219 C 37.449219 8.148438 37.601562 8.550781 37.75 8.949219 L 44.050781 8.949219 C 44.199219 8.550781 44.351562 8.148438 44.351562 7.699219 Z M 37.449219 7.699219 "/>
<path style=" stroke:none;fill-rule:nonzero;fill:url(#radial2);" d="M 44 6.050781 L 37.75 6.050781 C 37.601562 6.449219 37.449219 6.851562 37.449219 7.25 L 44.351562 7.25 C 44.300781 6.851562 44.199219 6.449219 44 6.050781 Z M 44 6.050781 "/>
<path style=" stroke:none;fill-rule:nonzero;fill:url(#radial3);" d="M 40.898438 10.949219 C 42.148438 10.949219 43.199219 10.300781 43.800781 9.351562 L 37.949219 9.351562 C 38.601562 10.300781 39.648438 10.949219 40.898438 10.949219 Z M 40.898438 10.949219 "/>
<path style=" stroke:none;fill-rule:evenodd;fill:url(#radial4);" d="M 40.898438 4.050781 C 39.699219 4.050781 38.601562 4.699219 38 5.648438 L 43.800781 5.648438 C 43.199219 4.699219 42.101562 4.050781 40.898438 4.050781 Z M 40.898438 4.050781 "/>
<path style=" stroke:none;fill-rule:nonzero;fill:rgb(0%,0%,0%);fill-opacity:1;" d="M 50.699219 9.199219 C 50.699219 8.699219 51.101562 8.300781 51.601562 8.300781 C 52.101562 8.300781 52.550781 8.699219 52.550781 9.199219 C 52.550781 9.699219 52.148438 10.101562 51.648438 10.101562 C 51.101562 10.101562 50.699219 9.699219 50.699219 9.199219 Z M 57.648438 7.101562 C 57.550781 6.800781 57.398438 6.601562 57.199219 6.5 C 57 6.398438 56.699219 6.351562 56.398438 6.351562 C 55.949219 6.351562 55.601562 6.449219 55.300781 6.699219 C 55.050781 6.949219 54.898438 7.300781 54.898438 7.75 C 54.898438 8.199219 55.050781 8.550781 55.300781 8.800781 C 55.550781 9.050781 55.898438 9.148438 56.398438 9.148438 C 56.75 9.148438 57 9.050781 57.25 8.898438 C 57.5 8.75 57.601562 8.5 57.648438 8.199219 L 59.199219 8.199219 C 59.148438 8.601562 59 8.949219 58.851562 9.199219 C 58.699219 9.449219 58.449219 9.648438 58.199219 9.800781 C 57.949219 9.949219 57.648438 10.050781 57.351562 10.101562 C 57.050781 10.148438 56.699219 10.199219 56.300781 10.199219 C 55.851562 10.199219 55.5 10.148438 55.148438 10.050781 C 54.800781 9.949219 54.5 9.800781 54.25 9.601562 C 54 9.398438 53.800781 9.148438 53.648438 8.851562 C 53.5 8.550781 53.449219 8.148438 53.449219 7.75 C 53.449219 7.300781 53.5 6.949219 53.648438 6.648438 C 53.800781 6.351562 54 6.101562 54.25 5.898438 C 54.5 5.699219 54.851562 5.550781 55.199219 5.449219 C 55.550781 5.351562 56 5.300781 56.449219 5.300781 C 56.75 5.300781 57.050781 5.351562 57.351562 5.398438 C 57.648438 5.449219 57.949219 5.550781 58.199219 5.699219 C 58.449219 5.851562 58.699219 6.050781 58.851562 6.25 C 59.050781 6.5 59.148438 6.800781 59.25 7.148438 L 57.648438 7.148438 Z M 60 7.699219 C 60 7.25 60.050781 6.898438 60.199219 6.601562 C 60.351562 6.300781 60.550781 6.050781 60.800781 5.851562 C 61.050781 5.648438 61.398438 5.5 61.75 5.398438 C 62.101562 5.300781 62.550781 5.25 63 5.25 C 63.449219 5.25 63.851562 5.300781 64.199219 5.398438 C 64.550781 5.5 64.898438 5.648438 65.148438 5.851562 C 65.398438 6.050781 65.601562 6.300781 65.75 6.601562 C 65.898438 6.898438 65.949219 7.300781 65.949219 7.699219 C 65.949219 8.148438 65.898438 8.5 65.75 8.800781 C 65.601562 9.101562 65.398438 9.351562 65.148438 9.550781 C 64.898438 9.75 64.550781 9.898438 64.199219 10 C 63.851562 10.101562 63.398438 10.148438 63 10.148438 C 62.550781 10.148438 62.148438 10.101562 61.75 10 C 61.398438 9.898438 61.050781 9.75 60.800781 9.550781 C 60.550781 9.351562 60.351562 9.101562 60.199219 8.800781 C 60.101562 8.5 60 8.101562 60 7.699219 Z M 61.550781 7.699219 C 61.550781 8.148438 61.699219 8.5 61.949219 8.75 C 62.199219 9 62.550781 9.101562 63.050781 9.101562 C 63.5 9.101562 63.851562 9 64.148438 8.75 C 64.398438 8.5 64.550781 8.148438 64.550781 7.699219 C 64.550781 7.25 64.398438 6.898438 64.148438 6.648438 C 63.898438 6.398438 63.550781 6.300781 63.050781 6.300781 C 62.601562 6.300781 62.25 6.398438 61.949219 6.648438 C 61.699219 6.898438 61.550781 7.25 61.550781 7.699219 Z M 74.101562 7.25 C 74.101562 7.101562 74.050781 6.949219 74 6.851562 C 73.949219 6.75 73.898438 6.648438 73.800781 6.601562 L 73.5 6.449219 C 73.398438 6.398438 73.300781 6.398438 73.148438 6.398438 C 73 6.398438 72.851562 6.398438 72.699219 6.449219 C 72.550781 6.5 72.449219 6.550781 72.351562 6.648438 C 72.25 6.75 72.148438 6.851562 72.101562 7 C 72.050781 7.148438 72 7.300781 72 7.449219 L 72 9.898438 L 70.5 9.898438 L 70.5 7.148438 C 70.5 7 70.449219 6.851562 70.398438 6.75 C 70.351562 6.648438 70.300781 6.550781 70.199219 6.5 L 69.898438 6.351562 C 69.800781 6.300781 69.699219 6.300781 69.601562 6.300781 C 69.449219 6.300781 69.300781 6.300781 69.148438 6.351562 C 69 6.398438 68.898438 6.449219 68.800781 6.550781 C 68.699219 6.648438 68.601562 6.75 68.550781 6.898438 C 68.5 7.050781 68.449219 7.199219 68.449219 7.351562 L 68.449219 9.800781 L 66.949219 9.800781 L 66.949219 5.25 L 68.398438 5.25 L 68.398438 5.898438 C 68.449219 5.800781 68.550781 5.699219 68.699219 5.601562 C 68.800781 5.5 68.949219 5.398438 69.101562 5.351562 C 69.25 5.300781 69.449219 5.199219 69.648438 5.148438 C 69.851562 5.101562 70.050781 5.101562 70.25 5.101562 C 70.699219 5.101562 71.050781 5.199219 71.300781 5.351562 C 71.550781 5.5 71.75 5.699219 71.851562 5.949219 C 72.050781 5.699219 72.300781 5.449219 72.648438 5.300781 C 72.949219 5.148438 73.300781 5.101562 73.75 5.101562 C 74 5.101562 74.199219 5.148438 74.398438 5.199219 C 74.601562 5.25 74.800781 5.351562 75 5.449219 C 75.148438 5.550781 75.300781 5.75 75.398438 5.949219 C 75.5 6.148438 75.550781 6.398438 75.550781 6.699219 L 75.550781 9.800781 L 74.050781 9.800781 Z M 1.75 4.101562 L 3.351562 4.101562 L 3.351562 8.800781 L 6.898438 8.800781 L 6.898438 9.949219 L 1.75 9.949219 Z M 7.199219 7.75 C 7.199219 7.351562 7.25 7 7.398438 6.699219 C 7.550781 6.398438 7.75 6.148438 8 5.949219 C 8.25 5.75 8.550781 5.601562 8.898438 5.550781 C 9.25 5.449219 9.648438 5.398438 10.101562 5.398438 C 10.550781 5.398438 10.898438 5.449219 11.300781 5.550781 C 11.648438 5.648438 11.949219 5.800781 12.199219 5.949219 C 12.449219 6.148438 12.648438 6.398438 12.800781 6.699219 C 12.949219 7 13 7.351562 13 7.75 C 13 8.148438 12.949219 8.5 12.800781 8.800781 C 12.648438 9.101562 12.449219 9.351562 12.199219 9.550781 C 11.949219 9.75 11.648438 9.898438 11.300781 9.949219 C 10.949219 10.050781 10.550781 10.101562 10.101562 10.101562 C 9.648438 10.101562 9.25 10.050781 8.898438 9.949219 C 8.550781 9.851562 8.25 9.699219 8 9.550781 C 7.75 9.351562 7.550781 9.101562 7.398438 8.800781 C 7.300781 8.550781 7.199219 8.199219 7.199219 7.75 Z M 8.699219 7.75 C 8.699219 8.199219 8.800781 8.5 9.050781 8.75 C 9.300781 9 9.648438 9.101562 10.101562 9.101562 C 10.550781 9.101562 10.898438 9 11.148438 8.75 C 11.398438 8.5 11.5 8.199219 11.5 7.75 C 11.5 7.300781 11.398438 7 11.148438 6.75 C 10.898438 6.5 10.550781 6.398438 10.101562 6.398438 C 9.648438 6.398438 9.300781 6.5 9.050781 6.75 C 8.800781 7 8.699219 7.351562 8.699219 7.75 Z M 17.699219 7.199219 C 17.601562 6.898438 17.449219 6.699219 17.25 6.601562 C 17.050781 6.5 16.800781 6.449219 16.5 6.449219 C 16.050781 6.449219 15.699219 6.550781 15.449219 6.800781 C 15.199219 7.050781 15.101562 7.351562 15.101562 7.800781 C 15.101562 8.25 15.199219 8.550781 15.449219 8.800781 C 15.699219 9.050781 16.050781 9.148438 16.5 9.148438 C 16.800781 9.148438 17.101562 9.050781 17.300781 8.898438 C 17.5 8.75 17.648438 8.5 17.699219 8.25 L 19.199219 8.25 C 19.148438 8.648438 19 8.949219 18.851562 9.199219 C 18.699219 9.449219 18.5 9.648438 18.25 9.800781 C 18 9.949219 17.75 10.050781 17.398438 10.101562 C 17.101562 10.148438 16.75 10.199219 16.398438 10.199219 C 16 10.199219 15.601562 10.148438 15.25 10.050781 C 14.898438 9.949219 14.601562 9.800781 14.398438 9.648438 C 14.148438 9.449219 13.949219 9.199219 13.851562 8.898438 C 13.699219 8.601562 13.648438 8.25 13.648438 7.851562 C 13.648438 7.449219 13.699219 7.101562 13.851562 6.800781 C 14 6.5 14.199219 6.25 14.449219 6.050781 C 14.699219 5.851562 15 5.699219 15.351562 5.648438 C 15.699219 5.550781 16.101562 5.5 16.550781 5.5 C 16.851562 5.5 17.101562 5.5 17.398438 5.550781 C 17.699219 5.601562 17.949219 5.699219 18.199219 5.851562 C 18.449219 6 18.648438 6.148438 18.851562 6.398438 C 19.050781 6.648438 19.148438 6.949219 19.25 7.300781 L 17.699219 7.300781 Z M 20.050781 6.898438 C 20.101562 6.550781 20.199219 6.300781 20.351562 6.101562 C 20.5 5.898438 20.699219 5.75 20.949219 5.648438 C 21.199219 5.550781 21.449219 5.5 21.75 5.449219 C 22.050781 5.398438 22.351562 5.398438 22.648438 5.398438 C 23.148438 5.398438 23.601562 5.449219 23.898438 5.5 C 24.25 5.601562 24.5 5.699219 24.648438 5.800781 C 24.851562 5.949219 24.949219 6.101562 25.050781 6.300781 C 25.101562 6.5 25.148438 6.699219 25.148438 6.898438 L 25.148438 9.101562 C 25.148438 9.300781 25.148438 9.449219 25.199219 9.601562 C 25.25 9.75 25.25 9.851562 25.300781 10 L 23.851562 10 C 23.800781 9.898438 23.800781 9.800781 23.800781 9.75 C 23.800781 9.648438 23.75 9.601562 23.75 9.5 C 23.601562 9.648438 23.5 9.75 23.300781 9.800781 C 23.148438 9.898438 22.949219 9.949219 22.75 10 C 22.550781 10.050781 22.398438 10.101562 22.199219 10.101562 C 22 10.101562 21.851562 10.148438 21.648438 10.148438 C 21.351562 10.148438 21.101562 10.101562 20.851562 10.050781 C 20.601562 10 20.398438 9.898438 20.25 9.800781 C 20.101562 9.699219 19.949219 9.550781 19.851562 9.351562 C 19.75 9.148438 19.699219 8.949219 19.699219 8.699219 C 19.699219 8.449219 19.75 8.199219 19.851562 8.050781 C 19.949219 7.898438 20.101562 7.75 20.25 7.648438 C 20.398438 7.550781 20.601562 7.5 20.851562 7.449219 C 21.050781 7.398438 21.300781 7.398438 21.5 7.351562 L 23 7.25 C 23.199219 7.25 23.398438 7.199219 23.449219 7.148438 C 23.550781 7.101562 23.601562 7 23.601562 6.800781 C 23.601562 6.601562 23.5 6.5 23.351562 6.398438 C 23.199219 6.300781 22.898438 6.25 22.449219 6.25 L 22.050781 6.25 C 21.949219 6.25 21.851562 6.300781 21.75 6.351562 C 21.648438 6.398438 21.601562 6.449219 21.5 6.550781 C 21.449219 6.648438 21.351562 6.75 21.300781 6.898438 Z M 23.75 7.800781 C 23.601562 7.851562 23.449219 7.898438 23.351562 7.949219 C 23.199219 7.949219 23.050781 8 22.898438 8 L 22.050781 8.050781 C 21.800781 8.050781 21.601562 8.101562 21.5 8.199219 C 21.351562 8.300781 21.300781 8.398438 21.300781 8.601562 C 21.300781 8.800781 21.398438 8.949219 21.550781 9.050781 C 21.699219 9.148438 21.949219 9.199219 22.199219 9.199219 C 22.398438 9.199219 22.550781 9.199219 22.75 9.148438 C 22.949219 9.101562 23.101562 9.050781 23.25 8.949219 C 23.398438 8.851562 23.5 8.75 23.601562 8.601562 C 23.699219 8.449219 23.75 8.300781 23.75 8.101562 Z M 26.050781 4 L 27.5 4 L 27.5 9.949219 L 26.050781 9.949219 Z M 26.050781 4 "/>
</g>
</svg>
